<svg width="94" height="32" viewBox="0 0 94 32" fill="none" xmlns="http://www.w3.org/2000/svg">
<path d="M23.2894 24.3118C23.2894 25.9219 19.5597 27.2271 14.959 27.2271C10.3583 27.2271 6.62866 25.9219 6.62866 24.3118C6.62866 22.7016 10.3581 21.396 14.959 21.396C19.5599 21.396 23.2894 22.7033 23.2894 24.3118Z" fill="#A0DCF2"/>
<path d="M17.1968 24.2019C17.2536 24.0175 17.263 23.7332 16.6941 23.862C16.6941 23.862 15.1394 24.084 15.0652 25.8979L15.0298 29.373H14.6562L14.6209 25.8979C14.5468 24.0842 12.9922 23.862 12.9922 23.862C12.425 23.7332 12.4324 24.0172 12.4892 24.2015C11.9315 23.252 10.4382 23.3748 10.4382 23.3748C9.91974 23.5596 10.4011 23.8927 10.4011 23.8927C11.2153 24.1886 11.2898 25.0773 11.2898 25.0773V27.5876L11.3758 29.5284C11.5607 30.3929 12.0169 30.9039 12.4644 31.2047L17.2307 31.1993C17.8073 30.8079 18.3969 30.0664 18.3969 28.6662V25.0773C18.3969 25.0773 18.4708 24.1886 19.2855 23.8927C19.2855 23.8927 19.7664 23.5595 19.2483 23.3748C19.2483 23.3748 19.1851 23.3698 19.08 23.3695C18.6737 23.3695 17.6403 23.4473 17.1971 24.2019M12.6967 27.7796V25.0405C12.6967 24.7729 12.6495 24.5479 12.5688 24.3587C13.1049 24.7767 13.1408 25.8241 13.1408 25.8241V29.2429C12.6072 28.8653 12.6967 27.7791 12.6967 27.7791M16.5475 25.8236C16.5475 25.8236 16.5834 24.7761 17.1194 24.3582C17.0388 24.5474 16.9916 24.7724 16.9916 25.04V27.7792C16.9916 27.7792 17.081 28.7887 16.5475 29.2044V25.8236Z" fill="black"/>
<path d="M23.2894 24.3118C23.2894 25.9219 19.5597 27.2271 14.959 27.2271C10.3583 27.2271 6.62866 25.9219 6.62866 24.3118C6.62866 22.7016 10.3581 21.396 14.959 21.396C19.5599 21.396 23.2894 22.7033 23.2894 24.3118Z" fill="#82BDE7"/>
<path d="M5.44352 15.7392L5.20308 16.577C5.20308 16.577 5.14053 16.8799 5.42582 16.9335C5.72368 16.9277 5.69936 16.6488 5.67851 16.5585L5.44352 15.7392Z" fill="#A0DCF2"/>
<path d="M29.6604 12.2265L29.6824 12.1176C27.2386 11.6289 24.7309 11.624 23.2121 11.687C23.4613 10.7891 23.5365 9.75586 23.5365 8.60361C23.5365 6.95111 22.9156 5.62908 21.9076 4.62311C22.0839 4.05469 22.3192 2.79189 21.6726 1.17563C21.6726 1.17563 20.5308 0.81356 17.9533 2.5397C16.9428 2.28718 15.8675 2.1624 14.7906 2.1624C13.6057 2.1624 12.4085 2.31332 11.2918 2.61963C8.62987 0.803467 7.45495 1.17547 7.45495 1.17547C6.68778 3.09506 7.16205 4.51324 7.30602 4.86604C6.40447 5.83907 5.85408 7.08085 5.85408 8.60344C5.85408 9.75305 5.98514 10.7842 6.30485 11.6804C4.77464 11.6248 2.35811 11.6462 0 12.1173L0.0218436 12.2262C2.39237 11.7521 4.82379 11.7355 6.34324 11.7931C6.41357 11.9784 6.49218 12.1572 6.57988 12.3326C5.07598 12.3811 2.50837 12.5725 0.047493 13.2669L0.0776109 13.3736C2.55785 12.6741 5.14797 12.4873 6.6373 12.442C7.53587 14.1166 9.30735 15.1986 12.459 15.5365C12.0115 15.837 11.5554 16.348 11.3701 17.2128C10.7606 17.504 8.8311 18.2159 7.67322 16.2249C7.67322 16.2249 7.02519 15.04 5.78474 14.9474C5.78474 14.9474 4.58169 14.9308 5.70151 15.697C5.70151 15.697 6.5069 16.0764 7.06226 17.5007C7.06226 17.5007 7.78707 19.9325 11.284 19.1522V21.6643C11.284 21.6643 11.2101 22.5529 10.3954 22.8488C10.3954 22.8488 9.91417 23.182 10.4325 23.3667C10.4325 23.3667 12.6905 23.5521 12.6905 21.7012V18.9621C12.6905 18.9621 12.6011 17.8757 13.1344 17.4983V22.0005C13.1344 22.0005 13.0977 23.074 12.5424 23.4812C12.5424 23.4812 12.1722 24.1473 12.9865 23.9625C12.9865 23.9625 14.541 23.7404 14.6152 21.9265L14.6506 17.3736H15.0241L15.0597 21.9265C15.1336 23.7402 16.6883 23.9625 16.6883 23.9625C17.5025 24.1473 17.1323 23.4812 17.1323 23.4812C16.5771 23.0742 16.5402 22.0005 16.5402 22.0005V17.5403C17.0736 17.954 16.9844 18.9654 16.9844 18.9654V21.7045C16.9844 23.5552 19.2422 23.37 19.2422 23.37C19.7602 23.1852 19.2794 22.8521 19.2794 22.8521C18.4649 22.5542 18.3908 21.6676 18.3908 21.6676V18.0771C18.3908 16.6771 17.8012 15.9354 17.2247 15.5441C20.5839 15.2108 22.1984 14.1256 22.9417 12.4393C24.4138 12.4797 27.0632 12.6591 29.5974 13.3743L29.6275 13.2675C27.1077 12.5568 24.4761 12.373 22.9889 12.3296C23.0594 12.1591 23.1208 11.9821 23.1754 11.8001C24.6821 11.7339 27.2012 11.7363 29.6546 12.227" fill="#292929"/>
<path d="M20.2506 8.52418C20.9746 9.17999 21.3981 9.97215 21.3981 10.8252C21.3981 14.8092 18.428 14.9172 14.7648 14.9172C11.1015 14.9172 8.1311 14.3673 8.1311 10.8269C8.1311 9.97926 8.54878 9.19223 9.26383 8.53908C10.4563 7.45054 12.4748 8.02691 14.7644 8.02691C17.0451 8.02691 19.056 7.44475 20.2502 8.52584" fill="#F5CDB5"/>
<path d="M12.5587 11.03C12.5587 12.1271 11.9408 13.0167 11.1785 13.0167C10.4163 13.0167 9.7981 12.1273 9.7981 11.03C9.7981 9.93264 10.4163 9.04351 11.1785 9.04351C11.9408 9.04351 12.5587 9.93264 12.5587 11.03Z" fill="white"/>
<path d="M12.1158 11.0548C12.1158 11.7863 11.7021 12.379 11.1957 12.379C10.6893 12.379 10.2756 11.7863 10.2756 11.0548C10.2756 10.3234 10.6874 9.73 11.1957 9.73C11.7041 9.73 12.1158 10.3231 12.1158 11.0548Z" fill="#B1645A"/>
<path d="M19.9634 11.03C19.9634 12.1271 19.3455 13.0167 18.583 13.0167C17.8205 13.0167 17.2029 12.1273 17.2029 11.03C17.2029 9.93264 17.821 9.04351 18.583 9.04351C19.345 9.04351 19.9634 9.93264 19.9634 11.03Z" fill="white"/>
<path d="M19.5205 11.0549C19.5205 11.7863 19.1068 12.3791 18.6004 12.3791C18.094 12.3791 17.6803 11.7863 17.6803 11.0549C17.6803 10.3235 18.094 9.73005 18.6004 9.73005C19.1068 9.73005 19.5205 10.3231 19.5205 11.0549ZM15.1292 12.7925C15.1292 12.9831 14.9747 13.1376 14.784 13.1376C14.5934 13.1376 14.4389 12.9831 14.4389 12.7925C14.4389 12.6018 14.5932 12.4473 14.784 12.4473C14.9749 12.4473 15.1292 12.6018 15.1292 12.7925ZM13.98 13.6654C13.9751 13.6516 13.973 13.6371 13.9738 13.6225C13.9746 13.6079 13.9782 13.5937 13.9845 13.5805C13.9908 13.5674 13.9996 13.5556 14.0104 13.5458C14.0213 13.5361 14.0339 13.5286 14.0477 13.5237C14.0614 13.5189 14.076 13.5168 14.0905 13.5175C14.1051 13.5183 14.1193 13.5219 14.1325 13.5282C14.1457 13.5345 14.1574 13.5433 14.1672 13.5542C14.1769 13.565 14.1845 13.5777 14.1893 13.5914C14.278 13.8421 14.5158 14.0106 14.7812 14.0106C15.0467 14.0106 15.2843 13.8421 15.3733 13.5914C15.3782 13.5777 15.3857 13.565 15.3954 13.5542C15.4052 13.5434 15.417 13.5346 15.4301 13.5283C15.4433 13.522 15.4575 13.5184 15.4721 13.5176C15.4866 13.5168 15.5012 13.5189 15.5149 13.5238C15.5286 13.5287 15.5413 13.5362 15.5521 13.5459C15.5629 13.5557 15.5717 13.5674 15.578 13.5806C15.5843 13.5937 15.5879 13.608 15.5887 13.6225C15.5895 13.6371 15.5874 13.6516 15.5825 13.6654C15.5229 13.83 15.4139 13.9723 15.2706 14.0728C15.1272 14.1734 14.9563 14.2273 14.7812 14.2273C14.6061 14.2273 14.4353 14.1734 14.2919 14.0728C14.1485 13.9723 14.0396 13.83 13.98 13.6654Z" fill="#B1645A"/>
<path d="M6.32733 15.2452C6.32733 15.3374 6.21944 15.4117 6.08656 15.4117C5.95368 15.4117 5.84595 15.3372 5.84595 15.2452C5.84595 15.1532 5.95351 15.0784 6.08656 15.0784C6.2196 15.0784 6.32733 15.1529 6.32733 15.2452ZM6.99389 15.6151C6.99389 15.7072 6.886 15.7819 6.75312 15.7819C6.62024 15.7819 6.51251 15.7074 6.51251 15.6151C6.51251 15.5227 6.62007 15.4486 6.75312 15.4486C6.88616 15.4486 6.99389 15.523 6.99389 15.6151ZM7.40131 16.0949C7.40131 16.1868 7.29375 16.2614 7.16053 16.2614C7.02732 16.2614 6.92009 16.187 6.92009 16.0949C6.92009 16.0029 7.02765 15.9281 7.16053 15.9281C7.29342 15.9281 7.40131 16.0026 7.40131 16.0949ZM7.77116 16.6505C7.77116 16.7426 7.6636 16.8173 7.53072 16.8173C7.39783 16.8173 7.28994 16.7428 7.28994 16.6505C7.28994 16.5581 7.3975 16.4837 7.53072 16.4837C7.66393 16.4837 7.77116 16.5581 7.77116 16.6505ZM8.17858 17.1706C8.17858 17.2624 8.07101 17.3371 7.93797 17.3371C7.80492 17.3371 7.69719 17.2626 7.69719 17.1706C7.69719 17.0786 7.80509 17.0038 7.93797 17.0038C8.07085 17.0038 8.17858 17.0782 8.17858 17.1706ZM8.7341 17.6146C8.7341 17.7067 8.62654 17.7814 8.49332 17.7814C8.36011 17.7814 8.25288 17.7069 8.25288 17.6146C8.25288 17.5222 8.36044 17.4481 8.49332 17.4481C8.6262 17.4481 8.7341 17.5226 8.7341 17.6146Z" fill="#C5E6DA"/>
<path d="M9.51141 17.9109C9.51141 18.0028 9.40385 18.0774 9.27081 18.0774C9.13776 18.0774 9.03003 18.0029 9.03003 17.9109C9.03003 17.8189 9.13759 17.7441 9.27081 17.7441C9.40402 17.7441 9.51141 17.8186 9.51141 17.9109Z" fill="#C5E6DA"/>
<path d="M10.2853 17.9109C10.2853 18.0028 10.1778 18.0774 10.0447 18.0774C9.91168 18.0774 9.80396 18.0029 9.80396 17.9109C9.80396 17.8189 9.91152 17.7441 10.0447 17.7441C10.1779 17.7441 10.2853 17.8186 10.2853 17.9109Z" fill="#C5E6DA"/>
<path d="M11.0707 17.782C11.0707 17.8742 10.9632 17.9489 10.8301 17.9489C10.6971 17.9489 10.5894 17.8744 10.5894 17.782C10.5894 17.6897 10.6969 17.6152 10.8301 17.6152C10.9633 17.6152 11.0707 17.6897 11.0707 17.782Z" fill="#C5E6DA"/>
<path d="M39.4318 6.99C40.3484 6.99 41.3926 6.7625 42.5859 6.30833V9.23583C42.3209 9.33083 41.9418 9.43583 41.4493 9.54833C41.6009 9.98417 41.6768 10.3917 41.6768 10.77C41.6768 11.9825 41.3076 13.0433 40.5684 13.9533C39.8736 14.8285 38.8638 15.3969 37.7551 15.5367C37.0051 15.65 36.6184 16.0575 36.6184 16.7583C36.6184 17.005 36.7418 17.2583 36.9876 17.4975C37.3093 17.8575 37.7834 18.085 38.4084 18.1792C41.1168 18.5958 42.4726 19.7233 42.4726 21.5608C42.4726 24.4975 40.7201 25.9658 37.2226 25.9658C35.7826 25.9658 34.5976 25.71 33.6701 25.1992C32.5034 24.555 31.9084 23.5325 31.9084 22.1575C31.9084 20.5742 32.7893 19.4767 34.5501 18.8892V18.8325C33.9059 18.435 33.5834 17.8283 33.5834 17.0142C33.5834 15.9533 33.8868 15.2892 34.5001 15.025V14.9683C33.8934 14.76 33.3543 14.2867 32.8801 13.5475C32.3493 12.7517 32.0843 11.8992 32.0843 10.9892C32.0843 9.625 32.5676 8.48917 33.5343 7.57917C34.4369 6.73583 35.6326 6.2773 36.8676 6.30083C37.7747 6.29521 38.667 6.53044 39.4534 6.9825M35.1909 11.0175C35.1909 12.3258 35.7876 12.9783 36.9809 12.9783C38.1368 12.9783 38.7143 12.315 38.7143 10.9892C38.7143 10.4392 38.5809 9.96583 38.3168 9.56833C37.9951 9.1325 37.5501 8.915 36.9809 8.915C35.7876 8.915 35.1909 9.61417 35.1909 11.0175ZM39.5676 21.9308C39.5676 20.9642 38.7718 20.4808 37.1801 20.4808C35.6451 20.4808 34.8784 20.9825 34.8784 21.9867C34.8784 22.9717 35.7118 23.4642 37.3784 23.4642C38.8368 23.4642 39.5676 22.9525 39.5676 21.9308ZM45.7934 4.23333C45.2434 4.23333 44.7701 4.025 44.3726 3.60833C43.9999 3.20741 43.7964 2.67815 43.8043 2.13083C43.8043 1.54333 43.9934 1.04167 44.3726 0.625C44.7701 0.208333 45.2443 0 45.7934 0C46.3243 0 46.7784 0.208333 47.1576 0.625C47.5551 1.04167 47.7543 1.54417 47.7543 2.13083C47.7575 2.40434 47.7065 2.67577 47.6041 2.9294C47.5016 3.18303 47.3499 3.4138 47.1576 3.60833C46.7784 4.025 46.3243 4.23333 45.7934 4.23333ZM44.1734 19.0667C44.2109 18.6875 44.2301 18.0433 44.2301 17.1333V8.2975L44.1734 6.45H47.3768C47.3393 6.81 47.3201 7.40667 47.3201 8.24V16.965L47.3768 19.0683H44.1651M53.3318 6.45H55.8043V9.20667C55.624 9.20308 55.4439 9.19363 55.2643 9.17833L54.5534 9.15H53.3318V14.4358C53.3318 15.705 53.7484 16.34 54.5818 16.34C55.1494 16.346 55.705 16.1772 56.1734 15.8567V18.69C55.4734 19.0692 54.6293 19.2583 53.6443 19.2583C52.2609 19.2583 51.3043 18.7583 50.7743 17.7808C50.3768 17.0417 50.1776 15.8767 50.1776 14.2858V9.19917H50.2059V9.1425L49.7793 9.11417C49.4555 9.12065 49.1325 9.14905 48.8126 9.19917V6.4425H50.2043V5.33417C50.2043 4.80333 50.1759 4.3775 50.1193 4.055H53.4159C53.3593 4.415 53.3309 4.82167 53.3309 5.27667V6.44167M63.4143 6.365C62.5993 6.365 61.7476 6.64833 60.8559 7.2175V2.24417L60.9126 0.1125H57.6726C57.7293 0.415834 57.7576 1.12583 57.7576 2.24417V17.2775L57.6726 19.0675H60.9693C60.9693 19.0108 60.9501 18.7842 60.9126 18.3842L60.8559 17.2758V10.2875C61.5193 9.6625 62.1643 9.35 62.7893 9.35C63.5093 9.35 64.0584 9.71 64.4376 10.43C64.7209 10.9983 64.8643 11.7092 64.8643 12.5617L64.8359 16.3983C64.8359 17.0425 64.7884 17.9317 64.6943 19.07H68.1326C68.0493 18.5967 68.0193 17.725 68.0193 16.4558V12.5625C68.0193 10.9142 67.6501 9.5125 66.9109 8.35667C66.0776 7.02333 64.9109 6.3675 63.4151 6.3675M74.3351 19.1817C72.8384 19.1817 71.7301 18.5183 71.0018 17.1925C70.4334 16.1125 70.1493 14.6925 70.1493 12.9592V9.06583L70.0359 6.45167H73.4459C73.3893 6.86833 73.3509 7.76 73.3326 9.12333L73.3043 12.96C73.3043 14.04 73.4276 14.8167 73.6734 15.29C73.9568 15.8775 74.4785 16.1708 75.2368 16.1708C75.7676 16.1708 76.3643 15.8583 77.0268 15.2333V8.23333C77.0244 7.86323 77.0055 7.49341 76.9701 7.125L76.9134 6.44333H80.2101C80.1726 6.76583 80.1534 7.3625 80.1534 8.23333V16.9375L80.2101 19.0692H77.1268V18.0375C76.2551 18.7875 75.3268 19.1742 74.3418 19.1742M88.3168 19.1458C87.8358 19.1566 87.3581 19.0631 86.9166 18.8718C86.4751 18.6805 86.0803 18.3959 85.7593 18.0375V19.0608H82.7468C82.8034 18.7383 82.8318 18.1417 82.8318 17.2708V2.24583L82.7468 0.114167H85.9868C85.9484 0.4475 85.9301 1.16583 85.9301 2.24583V7.19083C86.8018 6.64083 87.6551 6.3575 88.4884 6.3575C89.9851 6.3575 91.1601 7.02083 92.0134 8.34667C92.7334 9.5025 93.0934 10.905 93.0934 12.5525C93.0934 14.2383 92.7143 15.7067 91.9568 16.9575C91.0401 18.4158 89.8351 19.1458 88.3193 19.1458M87.8926 9.34167C87.2676 9.34167 86.6134 9.65417 85.9318 10.2792V15.2042C86.5384 15.7917 87.1351 16.085 87.7218 16.085C88.4609 16.085 89.0193 15.6683 89.3984 14.8633C89.7018 14.2192 89.8534 13.4517 89.8534 12.5617C89.8534 10.42 89.2001 9.35083 87.8926 9.35083" fill="black"/>
</svg>